<svg xmlns="http://www.w3.org/2000/svg" xmlns:xlink="http://www.w3.org/1999/xlink" viewBox="0 0 209.51 215.23"><defs><style>.cls-1{fill:none;}.cls-2{clip-path:url(#clip-path);}.cls-3{fill:url(#linear-gradient);}</style><clipPath id="clip-path"><path class="cls-1" d="M85.4,162l18.12-10.46.47.27.05,0a1.28,1.28,0,0,0,.27.11l.09,0,0,0,0,21Zm19.66-10,0,0,.09,0a1.19,1.19,0,0,0,.26-.11l.06,0,.46-.27L124.1,162l-19,11Zm-21.18,9.14V140.15l19,11L84.8,161.61Zm22.71-9.93,19-11v20.92l-.92.54Zm-42.36-1.41,18.2-10.51a.19.19,0,0,1,.06.07.9.9,0,0,0,.2.14.58.58,0,0,0,.12.1h0l.43.25v20.92Zm62-9.94.44-.25h0l.12-.1a.67.67,0,0,0,.19-.14s0,0,.06-.07l18.21,10.51-19,11ZM86.63,138.2,101,129.91a5.38,5.38,0,0,0,2.22,1.28v16.59Zm19.66-7a5.34,5.34,0,0,0,2.21-1.28l14.38,8.29-16.59,9.58Zm-42.36-4L82,137.68v.52s0,0,0,.06a1.26,1.26,0,0,0,0,.28s0,.07,0,.09,0,.05,0,.06L63.93,149.2Zm63.46,11.48s0,0,0-.06,0-.06,0-.09a1.27,1.27,0,0,0,0-.28s0,0,0-.06v-.52l18.12-10.47v22ZM85.1,116.4l14.37,8.29a5.49,5.49,0,0,0-.16,1.29,5.41,5.41,0,0,0,.16,1.28L85.1,135.55ZM110,127.26a4.94,4.94,0,0,0,.17-1.28,5,5,0,0,0-.17-1.29l14.38-8.29v19.15Zm-46.1-.76v-1L82,115v22ZM127.46,115l18.12,10.46v1L127.46,137Zm-1.27-1.3.15.09-.15.08Zm-39.56.06,16.59-9.58v16.59a5.29,5.29,0,0,0-2.22,1.29Zm19.66,7V104.17l16.59,9.58-14.38,8.3a5.25,5.25,0,0,0-2.21-1.29m-42.36-18,18.19,10.51a.07.07,0,0,0,0,0s0,.06,0,.09a1.45,1.45,0,0,0,0,.28s0,0,0,.06v.53L63.93,124.74Zm63.53,11.52v-.53s0,0,0-.06a1.41,1.41,0,0,0,0-.28s0-.06,0-.09a.07.07,0,0,0,0,0l18.19-10.51v22Zm-63.23-12,19-11v20.92l-.45.26,0,0a1.24,1.24,0,0,0-.23.17s0,0-.06.06l0,0Zm43.59-.71,17.81-10.28v20.57ZM127,112.7l-.07-.07a1,1,0,0,0-.23-.17l0,0-.46-.26V91.24l19,11-18.2,10.51s0,0,0,0M83.88,90.88l.92-.53,18.12,10.47-19,11ZM85.4,90l17.82-10.28v20.56Zm20.89-12,1.53-.89,16.59-9.57V88.41l-1.53.88-13.95,8,7-12.07.77-1.33a1.53,1.53,0,0,0-.56-2.09,1.63,1.63,0,0,0-.76-.2,1.54,1.54,0,0,0-1.33.76l-.77,1.33-7,12.07ZM85.1,64V43l18.12,10.46V71.35L95.49,58a1.53,1.53,0,1,0-2.65,1.53l7.73,13.39Zm-2.29-24.9A1.53,1.53,0,0,0,82,40.38V64.84a1.52,1.52,0,0,0,.77,1.32l18.89,10.9L61.63,100.2a1.53,1.53,0,0,0-.77,1.32v48.91a1.54,1.54,0,0,0,.77,1.33L104,176.21a1.28,1.28,0,0,0,.46.17h.61a1.35,1.35,0,0,0,.46-.17l42.36-24.45a1.54,1.54,0,0,0,.77-1.33V101.52a1.53,1.53,0,0,0-.77-1.32L127.46,88.41V64.84a1.53,1.53,0,0,0-2.29-1.33l-18.88,10.9V52.61a1.55,1.55,0,0,0-.77-1.33L84.34,39.05a1.5,1.5,0,0,0-.77-.2,1.47,1.47,0,0,0-.76.2"/></clipPath><linearGradient id="linear-gradient" x1="-2431.82" y1="183.95" x2="-2429.02" y2="183.95" gradientTransform="matrix(0, -46.02, -46.02, 0, 8569.57, -111728.32)" gradientUnits="userSpaceOnUse"><stop offset="0" stop-color="#2baae2"/><stop offset="0.05" stop-color="#2baae2"/><stop offset="0.14" stop-color="#2eabde"/><stop offset="0.23" stop-color="#35add1"/><stop offset="0.33" stop-color="#42b0bd"/><stop offset="0.43" stop-color="#53b4a0"/><stop offset="0.52" stop-color="#6aba7a"/><stop offset="0.62" stop-color="#85c14d"/><stop offset="0.64" stop-color="#8cc342"/><stop offset="1" stop-color="#8cc342"/></linearGradient></defs><title>Asset 3</title><g id="Layer_2" data-name="Layer 2"><g id="Layer_1-2" data-name="Layer 1"><g class="cls-2"><rect class="cls-3" x="31.63" y="26.06" width="146.24" height="163.11" transform="translate(-40.55 69.64) rotate(-31.13)"/></g></g></g></svg>