<?xml version="1.0"?>
<svg xmlns="http://www.w3.org/2000/svg" height="512px" viewBox="0 0 480 480" width="512px" class=""><g><path d="m56 376v96h144v-112c0-26.507812-21.492188-48-48-48h-16l-32 48-32-48h-16c-26.507812 0-48 21.492188-48 48v112h48zm0 0" fill="#9bc9ff" data-original="#9BC9FF" class="" style="fill:#FD6191" data-old_color="#fd6191"/><path d="m472 248h-320.71875c-2.207031 13.085938-9.738281 24.671875-20.800781 32h341.519531zm0 0" fill="#9bc9ff" data-original="#9BC9FF" class="" style="fill:#FD6191" data-old_color="#fd6191"/><path d="m120 280h10.511719c11.0625-7.328125 18.59375-18.914062 20.800781-32" fill="#9bc9ff" data-original="#9BC9FF" class="" style="fill:#FD6191" data-old_color="#fd6191"/><path d="m48 208h104v-48c0-8.835938-7.164062-16-16-16h-128v24c0 22.089844 17.910156 40 40 40zm0 0" fill="#9bc9ff" data-original="#9BC9FF" class="" style="fill:#FD6191" data-old_color="#fd6191"/><path d="m248 456v16h96v-16c0-17.671875-14.328125-32-32-32h-32c-17.671875 0-32 14.328125-32 32zm0 0" fill="#9bc9ff" data-original="#9BC9FF" class="" style="fill:#FD6191" data-old_color="#fd6191"/><path d="m440 424h-32c-17.671875 0-32 14.328125-32 32v16h96v-16c0-17.671875-14.328125-32-32-32zm0 0" fill="#9bc9ff" data-original="#9BC9FF" class="" style="fill:#FD6191" data-old_color="#fd6191"/><g fill="#1e81ce"><path d="m152 304h-96c-30.914062.035156-55.9648438 25.085938-56 56v120h208v-120c-.035156-30.914062-25.085938-55.964844-56-56zm-30.953125 16-17.046875 25.601562-17.046875-25.601562zm70.953125 144h-32v-88h-16v88h-80v-88h-16v88h-32v-104c.027344-22.082031 17.917969-39.972656 40-40h11.71875l36.28125 54.398438 36.28125-54.398438h11.71875c22.082031.027344 39.972656 17.917969 40 40zm0 0" data-original="#000000" class="active-path" style="fill:#4E4484" data-old_color="#4e4484"/><path d="m48 216v24c0 30.929688 25.070312 56 56 56s56-25.070312 56-56v-80c0-13.253906-10.746094-24-24-24h-136v32c.0273438 26.5 21.5 47.972656 48 48zm96 24c0 22.089844-17.910156 40-40 40s-40-17.910156-40-40v-24h80zm-128-88h120c4.417969 0 8 3.582031 8 8v40h-96c-17.671875 0-32-14.328125-32-32zm0 0" data-original="#000000" class="active-path" style="fill:#4E4484" data-old_color="#4e4484"/><path d="m464 240v-216c0-13.253906-10.746094-24-24-24h-304c-13.253906 0-24 10.746094-24 24v96h16v-96c0-4.417969 3.582031-8 8-8h304c4.417969 0 8 3.582031 8 8v216h-272v16h288v16h-304v16h320v-48zm0 0" data-original="#000000" class="active-path" style="fill:#4E4484" data-old_color="#4e4484"/><path d="m316.398438 416.449219c10.398437-8.601563 14.28125-22.800781 9.710937-35.496094-4.574219-12.695313-16.617187-21.160156-30.109375-21.160156s-25.535156 8.464843-30.109375 21.160156c-4.570313 12.695313-.6875 26.894531 9.710937 35.496094-20.207031 2.195312-35.539062 19.226562-35.601562 39.550781v24h112v-24c-.0625-20.324219-15.394531-37.355469-35.601562-39.550781zm-20.398438-40.449219c8.835938 0 16 7.164062 16 16s-7.164062 16-16 16-16-7.164062-16-16 7.164062-16 16-16zm40 88h-80v-8c0-13.253906 10.746094-24 24-24h32c13.253906 0 24 10.746094 24 24zm0 0" data-original="#000000" class="active-path" style="fill:#4E4484" data-old_color="#4e4484"/><path d="m444.398438 416.449219c10.398437-8.601563 14.28125-22.800781 9.710937-35.496094-4.574219-12.695313-16.617187-21.160156-30.109375-21.160156s-25.535156 8.464843-30.109375 21.160156c-4.570313 12.695313-.6875 26.894531 9.710937 35.496094-20.207031 2.195312-35.539062 19.226562-35.601562 39.550781v24h112v-24c-.0625-20.324219-15.394531-37.355469-35.601562-39.550781zm-20.398438-40.449219c8.835938 0 16 7.164062 16 16s-7.164062 16-16 16-16-7.164062-16-16 7.164062-16 16-16zm40 88h-80v-8c0-13.253906 10.746094-24 24-24h32c13.253906 0 24 10.746094 24 24zm0 0" data-original="#000000" class="active-path" style="fill:#4E4484" data-old_color="#4e4484"/><path d="m209.886719 72-25.597657 93.894531 15.4375 4.210938 9.289063-34.105469h29.96875l9.296875 34.105469 15.4375-4.210938-25.605469-93.894531zm3.496093 48 8.730469-32h3.773438l8.730469 32zm0 0" data-original="#000000" class="active-path" style="fill:#4E4484" data-old_color="#4e4484"/><path d="m316 72h-36v96h36c11.386719.015625 21.644531-6.875 25.9375-17.417969 4.289062-10.546875 1.757812-22.640625-6.402344-30.582031 8.160156-7.941406 10.691406-20.035156 6.402344-30.582031-4.292969-10.542969-14.550781-17.433594-25.9375-17.417969zm0 80h-20v-24h20c6.628906 0 12 5.371094 12 12s-5.371094 12-12 12zm0-40h-20v-24h20c6.628906 0 12 5.371094 12 12s-5.371094 12-12 12zm0 0" data-original="#000000" class="active-path" style="fill:#4E4484" data-old_color="#4e4484"/><path d="m400 88h16v-16h-16c-22.082031.027344-39.972656 17.917969-40 40v16c.027344 22.082031 17.917969 39.972656 40 40h16v-16h-16c-13.253906 0-24-10.746094-24-24v-16c0-13.253906 10.746094-24 24-24zm0 0" data-original="#000000" class="active-path" style="fill:#4E4484" data-old_color="#4e4484"/><path d="m216 200h16v16h-16zm0 0" data-original="#000000" class="active-path" style="fill:#4E4484" data-old_color="#4e4484"/><path d="m256 200h16v16h-16zm0 0" data-original="#000000" class="active-path" style="fill:#4E4484" data-old_color="#4e4484"/><path d="m296 200h16v16h-16zm0 0" data-original="#000000" class="active-path" style="fill:#4E4484" data-old_color="#4e4484"/><path d="m336 200h16v16h-16zm0 0" data-original="#000000" class="active-path" style="fill:#4E4484" data-old_color="#4e4484"/><path d="m376 200h16v16h-16zm0 0" data-original="#000000" class="active-path" style="fill:#4E4484" data-old_color="#4e4484"/></g></g> </svg>
