<?xml version="1.0"?>
<svg xmlns="http://www.w3.org/2000/svg" height="512px" viewBox="0 -1 481.6 481" width="512px" class=""><g><g fill="#9bc9ff"><path d="m240.367188 134.574219 9.136718-5.710938c23.445313-14.65625 53.65625-12.597656 74.894532 5.105469l12.402343 10.335938 7.152344-3.578126c5.421875-2.710937 8.847656-8.25 8.847656-14.3125v-6.109374c0-31.097657-12.925781-60.792969-35.683593-81.980469-22.757813-21.1875-53.300782-31.960938-84.316407-29.742188-59.316406 5.226563-104.621093 55.21875-104 114.761719v3.070312c0 6.0625 3.425781 11.601563 8.847657 14.3125l7.152343 3.578126h61.648438c11.992187 0 23.746093-3.371094 33.917969-9.730469zm0 0" data-original="#000000" class="" style="fill:#FD6191" data-old_color="#fd6191"/><path d="m240.832031 286.574219-.03125-.03125-.03125.03125zm0 0" data-original="#000000" class="" style="fill:#FD6191" data-old_color="#fd6191"/><path d="m216.800781 352.304688-16 120h80l-16-120zm0 0" data-original="#000000" class="" style="fill:#FD6191" data-old_color="#fd6191"/><path d="m240.832031 286.574219h-.0625l-40.082031 41.550781 16.113281 24.179688h48l16.109375-24.179688zm0 0" data-original="#000000" class="" style="fill:#FD6191" data-old_color="#fd6191"/><path d="m376.800781 424.304688h-64v48h80v-48zm0 0" data-original="#000000" class="" style="fill:#FD6191" data-old_color="#fd6191"/><path d="m376.800781 416.304688c0-8.839844-7.164062-16-16-16h-16c-8.835937 0-16 7.160156-16 16v8h48zm0 0" data-original="#000000" class="" style="fill:#FD6191" data-old_color="#fd6191"/><path d="m240.359375 286.542969c-3.277344-.035157-6.527344-.578125-9.640625-1.601563l-9.359375-3.117187c-15.886719-5.292969-30.378906-14.097657-42.398437-25.761719h-.082032l-21.597656 30.558594 35.519531 49.683594 48-49.730469c-.167969 0-.304687-.03125-.441406-.03125zm0 0" data-original="#000000" class="" style="fill:#FD6191" data-old_color="#fd6191"/><path d="m324.3125 286.621094-21.601562-30.558594h-.109376c-12.019531 11.664062-26.511718 20.46875-42.402343 25.761719l-9.359375 3.117187c-3.097656 1.019532-6.335938 1.5625-9.601563 1.601563-.132812 0-.269531 0-.40625 0l47.96875 49.761719 35.511719-49.675782zm0 0" data-original="#000000" class="" style="fill:#FD6191" data-old_color="#fd6191"/></g><path d="m471.664062 375.957031c-4.144531-45.242187-42.175781-79.820312-87.609374-79.652343h-30.679688c-7.792969-.003907-15.101562-3.792969-19.597656-10.160157l-20.714844-29.3125c20.414062-22.132812 31.742188-51.140625 31.738281-81.25v-26.335937l2.734375-1.367188c8.152344-4.042968 13.296875-12.367187 13.265625-21.464844v-6.109374c0-33.316407-13.851562-65.136719-38.234375-87.835938-24.386718-22.703125-57.109375-34.242188-90.34375-31.863281-63.511718 5.5-112.070312 58.992187-111.421875 122.738281v3.070312c-.03125 9.097657 5.113281 17.421876 13.261719 21.464844l2.738281 1.367188v26.335937c-.007812 30.109375 11.324219 59.117188 31.734375 81.25l-20.710937 29.3125c-4.496094 6.367188-11.804688 10.15625-19.601563 10.160157h-30.679687c-45.433594-.167969-83.460938 34.410156-87.605469 79.652343l-9.9375 104.347657h481.601562zm-252.832031-86.535156 6.113281 2.03125-31.203124 32.371094-26.613282-37.226563 13.160156-18.628906c11.410157 9.472656 24.476563 16.75 38.542969 21.453125zm4.96875 70.882813h34l13.863281 104h-61.726562zm36.71875-16h-39.441406l-10.167969-15.25 29.890625-30.984376 29.886719 30.984376zm-3.863281-52.851563 6.113281-2.03125c14.070313-4.703125 27.148438-11.976563 38.566407-21.453125l13.160156 18.628906-26.617188 37.226563zm-119.855469-165.039063v-3.070312c-.664062-55.355469 41.402344-101.886719 96.542969-106.785156 2.398438-.160156 4.871094-.246094 7.304688-.246094 27.605468-.042969 54.097656 10.894531 73.632812 30.402344 19.539062 19.507812 30.515625 45.980468 30.519531 73.589844v6.109374c-.003906 3.03125-1.714843 5.796876-4.425781 7.152344l-2.472656 1.242188-8.382813-6.992188c-23.875-19.957031-57.890625-22.269531-84.246093-5.730468l-9.144532 5.714843c-8.902344 5.558594-19.1875 8.503907-29.679687 8.503907h-59.761719l-5.464844-2.738282c-2.707031-1.355468-4.421875-4.121094-4.421875-7.152344zm16 25.890626h53.648438c13.492187.003906 26.71875-3.789063 38.160156-10.945313l9.144531-5.710937c20.503906-12.855469 46.953125-11.050782 65.527344 4.46875l9.519531 7.9375v27.527343c.0625 44.773438-28.59375 84.542969-71.089843 98.648438l-9.359376 3.121093c-4.902343 1.625-10.199218 1.625-15.105468 0l-9.359375-3.121093c-42.492188-14.105469-71.152344-53.875-71.085938-98.648438zm-126.9375 225.167968c3.394531-37.015625 34.511719-65.304687 71.679688-65.167968h30.679687c10.875-.019532 21.273438-4.460938 28.800782-12.304688l34.871093 48.800781 7.664063-7.945312 8.929687 13.390625-14.6875 110.058594h-176.199219zm294.9375 86.832032v-32h64v32zm16-48c0-4.421876 3.582031-8 8-8h16c4.417969 0 8 3.578124 8 8zm64 48v-48h-16c0-13.257813-10.746093-24-24-24h-16c-13.253906 0-24 10.742187-24 24h-16v48h-17l-14.671875-110.074219 8.925782-13.390625 7.664062 7.941406 34.875-48.796875c7.519531 7.84375 17.914062 12.292969 28.78125 12.320313h30.679688c37.171874-.136719 68.285156 28.152343 71.679687 65.167968l8.265625 86.832032zm0 0" fill="#1e81ce" data-original="#1E81CE" class="active-path" style="fill:#4E4484" data-old_color="#4e4484"/></g> </svg>
